<svg width="102" height="32" viewBox="0 0 102 32" fill="none" xmlns="http://www.w3.org/2000/svg">
<g clip-path="url(#clip0)">
<path d="M13.4967 10.6466C13.7291 10.7417 13.6156 10.9979 13.6129 11.1749C13.7291 11.5791 14.3183 11.6478 14.5904 11.3678C14.6266 11.3294 14.6543 11.2837 14.6717 11.2339C14.6891 11.184 14.6958 11.131 14.6913 11.0784C14.6868 11.0258 14.6713 10.9747 14.6457 10.9285C14.6201 10.8823 14.585 10.8421 14.5428 10.8104C14.3447 10.6386 14.0145 10.739 13.8507 10.5277C13.7978 10.4035 13.8507 10.2635 13.8507 10.142C13.6367 9.80911 12.9947 9.83553 12.8468 10.2159C12.8389 10.5673 13.2483 10.5673 13.4967 10.6466Z" fill="#0C71BC"/>
<path d="M15.4698 10.2242C15.3615 9.88606 14.8807 9.85964 14.6059 9.99966C14.5653 10.0214 14.5305 10.0527 14.5047 10.0909C14.479 10.1291 14.4629 10.1731 14.458 10.2189C14.5293 10.7024 15.446 10.7341 15.4698 10.2242Z" fill="#0C71BC"/>
<path d="M15.3567 11.1906C15.4861 11.6529 16.3183 11.7058 16.4134 11.1906C16.4293 10.7864 15.9088 10.5936 15.5865 10.7468C15.5419 10.7603 15.5005 10.7826 15.4647 10.8124C15.4288 10.8421 15.3994 10.8788 15.3779 10.9202C15.3565 10.9615 15.3436 11.0068 15.3399 11.0532C15.3363 11.0997 15.342 11.1464 15.3567 11.1906Z" fill="#0C71BC"/>
<path d="M17.9401 11.4894C17.9657 11.404 17.9692 11.3135 17.9504 11.2263C17.9315 11.1392 17.891 11.0582 17.8324 10.991C17.7739 10.9238 17.6993 10.8724 17.6156 10.8418C17.5319 10.8111 17.4418 10.8022 17.3536 10.8157C17.3137 10.8117 17.2734 10.8159 17.2351 10.828C17.1969 10.8401 17.1615 10.8598 17.1311 10.886C17.1007 10.9122 17.0759 10.9443 17.0583 10.9803C17.0407 11.0164 17.0307 11.0557 17.0287 11.0957C16.9812 11.5422 17.6707 11.8883 17.9401 11.4894Z" fill="#0C71BC"/>
<path d="M10.3029 12.5829C10.4878 12.3583 10.3029 12.0175 10.5116 11.8088C10.7018 11.6424 10.9871 11.6529 11.172 11.4707C11.2544 11.4029 11.3072 11.3059 11.3196 11.2C11.3319 11.0941 11.3027 10.9875 11.238 10.9027C10.9131 10.5883 10.2395 10.9449 10.353 11.3861C10.3543 11.5143 10.3089 11.6386 10.2253 11.7358C10.1417 11.833 10.0256 11.8965 9.89866 11.9145C9.81191 11.9384 9.73223 11.9829 9.66644 12.0443C9.60064 12.1057 9.55068 12.1821 9.52083 12.267C9.49098 12.3518 9.48212 12.4427 9.49501 12.5317C9.5079 12.6208 9.54216 12.7054 9.59486 12.7783C9.65355 12.8144 9.71905 12.8381 9.78726 12.8477C9.85548 12.8574 9.92497 12.853 9.99138 12.8346C10.0578 12.8163 10.1197 12.7845 10.1733 12.7411C10.2269 12.6978 10.271 12.644 10.3029 12.5829Z" fill="#0C71BC"/>
<path d="M11.1346 11.9542C11.0908 11.997 11.0559 12.0482 11.0321 12.1047C11.0084 12.1612 10.9961 12.2218 10.9961 12.2831C10.9961 12.3444 11.0084 12.4051 11.0321 12.4616C11.0559 12.518 11.0908 12.5692 11.1346 12.612C11.2747 12.752 11.5151 12.6675 11.663 12.8154C11.7244 12.8756 11.7673 12.9522 11.7865 13.036C11.8057 13.1198 11.8004 13.2074 11.7713 13.2883C11.7563 13.3729 11.7622 13.46 11.7885 13.5418C11.8147 13.6236 11.8606 13.6978 11.922 13.758C11.9834 13.8181 12.0586 13.8623 12.141 13.8868C12.2234 13.9113 12.3105 13.9154 12.3948 13.8986C12.7805 13.8457 13.0394 13.32 12.7593 13.0136C12.5929 12.7758 12.231 12.892 12.0672 12.649C11.9034 12.406 12.0672 12.1656 12.0196 11.9225C12.0196 11.6081 12.3763 11.5368 12.622 11.5077C12.622 11.5077 12.9839 11.3043 12.9733 11.1062C13.0103 10.7997 12.6431 10.6518 12.3895 10.702C12.307 10.7111 12.2276 10.7385 12.1571 10.7823C12.0867 10.8261 12.0269 10.8852 11.9823 10.9552C11.9377 11.0251 11.9094 11.1042 11.8994 11.1866C11.8894 11.269 11.898 11.3525 11.9245 11.4311C11.8004 11.7851 11.3328 11.6847 11.1346 11.9542Z" fill="#0C71BC"/>
<path d="M13.066 11.7191C12.9905 11.7389 12.9212 11.7771 12.8642 11.8303C12.8072 11.8835 12.7643 11.95 12.7395 12.0239C12.7146 12.0978 12.7084 12.1767 12.7216 12.2535C12.7348 12.3304 12.7669 12.4027 12.815 12.4641C13.0977 12.8207 13.7898 12.6305 13.8083 12.1603C13.8268 11.7878 13.375 11.6002 13.066 11.7191Z" fill="#0C71BC"/>
<path d="M15.5858 12.2952C15.6915 11.8831 15.1975 11.5793 14.8356 11.714C14.766 11.7312 14.7015 11.7649 14.6477 11.8122C14.5938 11.8596 14.5522 11.9192 14.5263 11.9861C14.5004 12.053 14.4909 12.1251 14.4988 12.1964C14.5066 12.2676 14.5315 12.336 14.5714 12.3956C14.8065 12.7601 15.4749 12.7311 15.5858 12.2952Z" fill="#0C71BC"/>
<path d="M16.3233 12.4826C16.2599 12.9317 15.6655 12.7336 15.5018 13.0955C15.4658 13.1699 15.4466 13.2513 15.4454 13.334C15.4442 13.4166 15.461 13.4985 15.4947 13.574C15.5284 13.6495 15.5782 13.7167 15.6405 13.7709C15.7029 13.8251 15.7763 13.8651 15.8558 13.888C15.9233 13.9127 15.9951 13.9233 16.0669 13.9192C16.1387 13.9151 16.2089 13.8964 16.2732 13.8643C16.3375 13.8321 16.3945 13.7872 16.4409 13.7322C16.4872 13.6773 16.5218 13.6134 16.5426 13.5446C16.6219 13.3438 16.4369 13.1246 16.5638 12.9317C16.6104 12.8599 16.6748 12.8012 16.7506 12.7614C16.8265 12.7216 16.9114 12.702 16.997 12.7045C17.0991 12.6853 17.1895 12.6264 17.2484 12.5408C17.3073 12.4552 17.3299 12.3497 17.3114 12.2475C17.2977 12.1624 17.2655 12.0813 17.2171 12.01C17.1686 11.9387 17.1051 11.8789 17.0311 11.8348C16.957 11.7908 16.8742 11.7635 16.7884 11.7549C16.7026 11.7463 16.616 11.7566 16.5347 11.7852C16.223 11.8882 16.3022 12.2369 16.3233 12.4826Z" fill="#0C71BC"/>
<path d="M18.6925 12.8076C19.1178 12.4563 18.5631 11.6822 18.0902 11.9543C17.6279 12.2872 18.2275 13.0929 18.6925 12.8076Z" fill="#0C71BC"/>
<path d="M14.0014 12.8263C13.9153 12.8427 13.8346 12.8802 13.7666 12.9356C13.6987 12.9909 13.6455 13.0622 13.612 13.1432C13.5784 13.2242 13.5655 13.3122 13.5745 13.3994C13.5835 13.4866 13.614 13.5702 13.6633 13.6427C13.8244 13.9385 14.2286 13.8302 14.4373 14.0627C14.5025 14.2032 14.5341 14.357 14.5298 14.5118C14.4822 14.7443 14.6249 15.0111 14.4664 15.2172C14.3079 15.4232 13.938 15.3677 13.7505 15.5606C13.6843 15.6191 13.632 15.6918 13.5976 15.7731C13.5632 15.8545 13.5474 15.9425 13.5514 16.0308C13.5554 16.1191 13.5792 16.2053 13.6209 16.2832C13.6626 16.3611 13.7212 16.4287 13.7925 16.4809C13.8637 16.5332 13.9458 16.5689 14.0326 16.5853C14.1194 16.6017 14.2088 16.5985 14.2942 16.5758C14.3796 16.5532 14.4589 16.5117 14.5261 16.4544C14.5934 16.3971 14.647 16.3255 14.683 16.2448C14.823 15.9806 14.609 15.6795 14.7702 15.4285C14.9313 15.1775 15.3223 15.2859 15.5231 15.0587C15.5788 15 15.6215 14.9303 15.6483 14.854C15.6751 14.7777 15.6855 14.6966 15.6788 14.616C15.6721 14.5354 15.6484 14.4572 15.6092 14.3864C15.5701 14.3156 15.5164 14.2539 15.4518 14.2054C15.2985 14.0838 15.0872 14.0891 14.9234 14.0046C14.8413 13.9466 14.7789 13.8649 14.7444 13.7705C14.71 13.6761 14.7051 13.5735 14.7306 13.4762C14.7494 13.3795 14.7427 13.2796 14.7112 13.1862C14.6797 13.0929 14.6245 13.0093 14.5509 12.9438C14.4774 12.8782 14.3881 12.8329 14.2917 12.8123C14.1954 12.7918 14.0953 12.7966 14.0014 12.8263Z" fill="#0C71BC"/>
<path d="M17.8101 14.0012C17.868 13.9985 17.9247 13.9843 17.9771 13.9596C18.0294 13.9349 18.0764 13.9 18.1152 13.857C18.154 13.814 18.1839 13.7638 18.2032 13.7092C18.2225 13.6546 18.2307 13.5967 18.2275 13.5389C18.2275 13.1611 17.7996 12.7992 17.435 12.992C16.9727 13.2615 17.3108 14.0408 17.8101 14.0012Z" fill="#0C71BC"/>
<path d="M19.2844 14.1683H19.3056C19.6358 14.4061 19.3346 14.842 19.5354 15.1405C19.6015 15.2964 19.7996 15.4311 19.9634 15.3043C20.0478 15.211 20.1034 15.0952 20.1236 14.971C20.1438 14.8468 20.1276 14.7194 20.077 14.6042C20.0136 14.34 19.6147 14.34 19.5909 14.0494C19.6067 13.7853 19.6332 13.4524 19.4192 13.2411C19.3812 13.1936 19.3316 13.1567 19.2753 13.1337C19.219 13.1108 19.1577 13.1027 19.0974 13.1101C19.037 13.1175 18.9796 13.1402 18.9305 13.1761C18.8814 13.212 18.8423 13.2598 18.8169 13.315C18.7887 13.4017 18.7786 13.4932 18.7871 13.584C18.7956 13.6747 18.8226 13.7627 18.8664 13.8426C18.9102 13.9226 18.9699 13.9927 19.0418 14.0487C19.1137 14.1047 19.1962 14.1454 19.2844 14.1683Z" fill="#0C71BC"/>
<path d="M8.42456 15.3406C8.76535 15.375 8.89216 14.9417 8.84197 14.6723C8.78121 14.4609 8.88424 14.1439 9.13521 14.1228C9.39938 14.173 9.39938 14.4768 9.35183 14.6775C9.29107 14.9576 9.476 15.3169 9.79565 15.2878C10.1153 15.2587 10.3002 14.8228 10.221 14.4953C10.1417 14.1677 10.4561 13.9537 10.7493 13.9273H10.7705C10.8452 13.8892 10.911 13.8357 10.9635 13.7704C11.016 13.705 11.054 13.6292 11.0749 13.548C11.0959 13.4668 11.0994 13.3821 11.0852 13.2995C11.0709 13.2168 11.0393 13.1382 10.9924 13.0687C10.9392 13.0186 10.8758 12.9808 10.8065 12.9576C10.7372 12.9345 10.6637 12.9267 10.5911 12.9347C10.5185 12.9427 10.4485 12.9664 10.386 13.0042C10.3235 13.0419 10.2699 13.0928 10.2289 13.1532C10.0519 13.354 10.1153 13.6367 10.0968 13.8824C10.072 13.953 10.0332 14.0178 9.98283 14.0732C9.93246 14.1286 9.87151 14.1733 9.80358 14.2047C9.74264 14.1947 9.68469 14.1713 9.63396 14.1361C9.58323 14.1009 9.54099 14.0548 9.51034 14.0012C9.47335 13.7371 9.64507 13.4729 9.47335 13.2378C9.43704 13.1953 9.39153 13.1618 9.34029 13.1396C9.28904 13.1174 9.23341 13.1072 9.17763 13.1097C9.12184 13.1123 9.06738 13.1275 9.01837 13.1543C8.96936 13.181 8.9271 13.2186 8.8948 13.2642C8.68346 13.4782 8.75479 13.7925 8.74158 14.0567C8.72826 14.1172 8.70103 14.1738 8.66205 14.2219C8.62308 14.2701 8.57342 14.3085 8.51703 14.3341C8.12604 14.4794 8.06528 15.1504 8.42456 15.3406Z" fill="#0C71BC"/>
<path d="M11.1426 15.19C11.5547 15.4198 12.0434 14.9258 11.8955 14.5084C11.8781 14.4379 11.8457 14.372 11.8006 14.3152C11.7555 14.2583 11.6988 14.2118 11.6342 14.1787C11.5696 14.1457 11.4986 14.1269 11.4261 14.1236C11.3536 14.1203 11.2812 14.1326 11.2139 14.1597C11.1174 14.2033 11.0345 14.2723 10.9741 14.3592C10.9136 14.4462 10.8779 14.5479 10.8705 14.6535C10.8632 14.7592 10.8847 14.8648 10.9326 14.9593C10.9804 15.0537 11.053 15.1334 11.1426 15.19Z" fill="#0C71BC"/>
<path d="M18.1408 15.6368C17.9955 15.4017 17.6335 15.4809 17.5067 15.222C17.3403 14.9896 17.5305 14.6937 17.3852 14.448C17.3329 14.3219 17.2338 14.2209 17.1087 14.1663C16.9836 14.1116 16.8423 14.1075 16.7142 14.1548C16.6334 14.1934 16.5629 14.2505 16.5082 14.3214C16.4536 14.3923 16.4164 14.4751 16.3997 14.5631C16.383 14.651 16.3872 14.7417 16.412 14.8277C16.4368 14.9137 16.4815 14.9927 16.5425 15.0583C16.701 15.2881 17.0444 15.2088 17.1976 15.4466C17.409 15.7108 17.1633 16.0621 17.3561 16.329C17.389 16.3896 17.4349 16.4423 17.4906 16.483C17.5463 16.5237 17.6104 16.5515 17.6782 16.5644C17.7459 16.5773 17.8157 16.575 17.8825 16.5576C17.9493 16.5401 18.0113 16.5081 18.0641 16.4637C18.1784 16.3606 18.2496 16.2184 18.2638 16.0652C18.278 15.912 18.2341 15.7591 18.1408 15.6368Z" fill="#0C71BC"/>
<path d="M18.6191 15.2806C19.195 15.1537 19.0048 14.1076 18.4104 14.2238C17.8556 14.3744 18.0405 15.3651 18.6191 15.2806Z" fill="#0C71BC"/>
<path d="M9.01302 15.4887C8.55071 15.6499 8.61676 16.5454 9.14776 16.5296C9.6814 16.4133 9.58894 15.4015 9.01302 15.4887Z" fill="#0C71BC"/>
<path d="M15.5224 16.2336C15.5502 16.3035 15.5917 16.367 15.6445 16.4205C15.6973 16.474 15.7604 16.5163 15.8299 16.5449C15.8994 16.5735 15.974 16.5878 16.0491 16.587C16.1243 16.5861 16.1985 16.5702 16.2674 16.5401C16.3418 16.5061 16.4082 16.457 16.4624 16.3958C16.5167 16.3347 16.5576 16.2629 16.5824 16.1851C16.6073 16.1072 16.6156 16.025 16.6069 15.9437C16.5981 15.8625 16.5725 15.7839 16.5316 15.7132C16.4948 15.6459 16.4445 15.5868 16.3839 15.5398C16.3234 15.4927 16.2538 15.4585 16.1795 15.4395C16.1052 15.4204 16.0277 15.4168 15.952 15.4289C15.8762 15.441 15.8037 15.4685 15.739 15.5098C15.6226 15.5848 15.5368 15.699 15.4971 15.8317C15.4573 15.9644 15.4663 16.1069 15.5224 16.2336Z" fill="#0C71BC"/>
<path d="M19.1923 16.5302C19.7841 16.5302 19.7207 15.3783 19.1263 15.4946C18.6798 15.6504 18.7141 16.4483 19.1923 16.5302Z" fill="#0C71BC"/>
<path d="M11.7477 17.7581C11.8196 17.6854 11.8712 17.5951 11.8973 17.4963C11.9234 17.3974 11.923 17.2934 11.8963 17.1946C11.8695 17.0959 11.8173 17.006 11.7449 16.9338C11.6724 16.8616 11.5823 16.8097 11.4835 16.7833C11.251 16.749 11.008 16.6089 11 16.3474C11.0601 16.1298 11.0423 15.8981 10.9498 15.6922C10.9198 15.6373 10.8791 15.5889 10.8302 15.5498C10.7813 15.5107 10.7251 15.4817 10.6649 15.4645C10.6047 15.4473 10.5416 15.4422 10.4794 15.4496C10.4173 15.4569 10.3571 15.4765 10.3026 15.5073C10.2294 15.5593 10.1683 15.6264 10.1236 15.7043C10.0789 15.7821 10.0515 15.8687 10.0435 15.9581C10.0355 16.0475 10.0469 16.1375 10.0771 16.2221C10.1072 16.3066 10.1553 16.3836 10.2181 16.4478C10.3819 16.5878 10.6487 16.5508 10.7808 16.741C10.9631 16.9788 10.757 17.2905 10.8891 17.5336C10.9167 17.6174 10.9648 17.693 11.0291 17.7534C11.0935 17.8138 11.1719 17.8572 11.2573 17.8795C11.3426 17.9019 11.4322 17.9024 11.5179 17.8812C11.6036 17.86 11.6826 17.8177 11.7477 17.7581Z" fill="#0C71BC"/>
<path d="M13.6653 17.7186C13.7244 17.6422 13.7635 17.5522 13.7789 17.4568C13.7943 17.3614 13.7856 17.2637 13.7536 17.1725C13.7215 17.0814 13.6672 16.9997 13.5954 16.9349C13.5237 16.8702 13.4369 16.8244 13.343 16.8019C13.1131 16.7675 12.8331 16.6645 12.8146 16.3977C12.8466 16.1743 12.8466 15.9474 12.8146 15.724C12.8121 15.66 12.8225 15.5961 12.845 15.5362C12.8676 15.4762 12.9019 15.4214 12.946 15.3748C12.99 15.3283 13.0429 15.2911 13.1016 15.2653C13.1602 15.2395 13.2234 15.2257 13.2875 15.2247C13.4229 15.2063 13.5476 15.141 13.6398 15.0401C13.732 14.9392 13.7859 14.8091 13.7921 14.6726C13.7946 14.5947 13.7813 14.5172 13.753 14.4446C13.7246 14.3721 13.6819 14.306 13.6273 14.2505C13.5728 14.1949 13.5075 14.151 13.4354 14.1214C13.3634 14.0918 13.2861 14.0771 13.2082 14.0782C13.0571 14.0843 12.9142 14.1489 12.8098 14.2583C12.7053 14.3677 12.6474 14.5134 12.6482 14.6647C12.6482 14.8575 12.7142 15.0873 12.5689 15.2485C12.4236 15.4096 12.0934 15.3806 11.9111 15.5576C11.796 15.6591 11.7242 15.8008 11.7104 15.9536C11.6967 16.1065 11.742 16.2588 11.8371 16.3792C12.0221 16.6037 12.3655 16.5245 12.5451 16.7649C12.7776 17.0291 12.5214 17.3804 12.7221 17.6446C12.7703 17.7234 12.8364 17.7897 12.9151 17.838C12.9937 17.8863 13.0828 17.9152 13.1748 17.9224C13.2669 17.9297 13.3593 17.9149 13.4446 17.8795C13.5298 17.8441 13.6055 17.7889 13.6653 17.7186Z" fill="#0C71BC"/>
<path d="M8.36349 16.7041C8.30095 16.7689 8.25318 16.8464 8.22345 16.9314C8.19372 17.0164 8.18275 17.1068 8.19129 17.1964C8.19982 17.286 8.22766 17.3727 8.27289 17.4505C8.31812 17.5284 8.37967 17.5955 8.45331 17.6473C9.06356 17.7344 8.92883 16.4822 8.36349 16.7041Z" fill="#0C71BC"/>
<path d="M19.6916 16.7089C19.4274 16.8806 19.4565 17.2373 19.4803 17.5015C19.4803 17.7049 19.2583 17.9928 19.0576 17.8079C18.7934 17.5252 19.1527 17.0154 18.7617 16.7776C18.3047 16.5134 17.8793 17.1924 18.1462 17.5702C18.2307 17.7551 18.442 17.7815 18.6164 17.8185C18.8568 17.8951 18.8462 18.1883 18.7881 18.3838C18.7706 18.4382 18.7652 18.4958 18.7724 18.5525C18.7795 18.6093 18.799 18.6637 18.8295 18.7121C18.86 18.7604 18.9007 18.8015 18.9488 18.8324C18.9969 18.8634 19.0511 18.8834 19.1078 18.8911C19.1825 18.8789 19.2541 18.852 19.3184 18.8121C19.3827 18.7721 19.4385 18.7197 19.4824 18.6581C19.5264 18.5964 19.5577 18.5267 19.5746 18.4529C19.5914 18.379 19.5935 18.3026 19.5806 18.228C19.5531 18.117 19.5643 17.9999 19.6123 17.8962C19.6603 17.7924 19.7424 17.7081 19.8448 17.6573C20.1407 17.5332 20.183 17.129 20.0932 16.8648C20.0377 16.7142 19.8343 16.5848 19.6916 16.7089Z" fill="#0C71BC"/>
<path d="M10.2047 18.8017C10.2423 18.8691 10.2947 18.9272 10.3579 18.9716C10.4211 19.0159 10.4935 19.0454 10.5697 19.0579C10.6459 19.0703 10.724 19.0654 10.798 19.0435C10.872 19.0215 10.9402 18.9831 10.9973 18.9312C11.0492 18.8538 11.082 18.7653 11.0929 18.6728C11.1038 18.5803 11.0925 18.4865 11.06 18.3993C11.0274 18.312 10.9746 18.2337 10.9058 18.171C10.837 18.1082 10.7543 18.0627 10.6644 18.0382C10.5832 18.0264 10.5057 17.9965 10.4376 17.9508C10.3695 17.9051 10.3125 17.8447 10.2708 17.774C10.1651 17.5389 10.3236 17.2747 10.1968 17.0449C10.1771 16.9764 10.1411 16.9137 10.0919 16.8621C10.0427 16.8106 9.98174 16.7717 9.91423 16.7489C9.84672 16.726 9.77467 16.7199 9.70427 16.7309C9.63386 16.742 9.56718 16.77 9.50994 16.8124C9.44599 16.8789 9.39807 16.959 9.36985 17.0468C9.34163 17.1346 9.33385 17.2277 9.3471 17.3189C9.36036 17.4102 9.3943 17.4972 9.44633 17.5733C9.49836 17.6495 9.5671 17.7127 9.64731 17.7582C9.80582 17.8137 9.99339 17.8718 10.0621 18.0409C10.1651 18.2839 10.0383 18.5798 10.2047 18.8017Z" fill="#0C71BC"/>
<path d="M13.9406 19.1561C14.0337 19.1986 14.1366 19.2149 14.2383 19.2035C14.34 19.192 14.4367 19.1532 14.5181 19.0911C14.5994 19.029 14.6624 18.9459 14.7003 18.8508C14.7381 18.7558 14.7495 18.6522 14.7331 18.5511C14.712 18.4874 14.7049 18.4199 14.7125 18.3532C14.7202 18.2865 14.7422 18.2222 14.7771 18.1649C14.8121 18.1076 14.8591 18.0585 14.9149 18.0212C14.9707 17.9839 15.034 17.9592 15.1003 17.9488C15.2576 17.9427 15.4066 17.8767 15.5166 17.7641C15.6267 17.6516 15.6895 17.5012 15.6921 17.3438C15.6903 17.248 15.6645 17.1542 15.6171 17.0709C15.5697 16.9877 15.5022 16.9176 15.4207 16.8672C15.3393 16.8167 15.2465 16.7875 15.1508 16.7821C15.0552 16.7768 14.9597 16.7955 14.8731 16.8366C14.7284 16.9038 14.6149 17.0238 14.5561 17.1721C14.4636 17.4099 14.638 17.682 14.49 17.9065C14.3051 18.1707 13.8904 18.0598 13.6975 18.3292C13.6452 18.3955 13.6096 18.4733 13.5936 18.5561C13.5776 18.639 13.5816 18.7245 13.6054 18.8054C13.6292 18.8864 13.6721 18.9605 13.7304 19.0215C13.7887 19.0825 13.8608 19.1287 13.9406 19.1561Z" fill="#0C71BC"/>
<path d="M17.2924 17.7137C17.3887 17.6087 17.4445 17.473 17.4498 17.3307C17.4551 17.1884 17.4097 17.0488 17.3215 16.937C17.2567 16.859 17.1692 16.8032 17.0712 16.7771C16.9733 16.7511 16.8696 16.7562 16.7746 16.7917C16.7019 16.8197 16.6354 16.8619 16.5792 16.9159C16.5229 16.9698 16.478 17.0345 16.4471 17.106C16.315 17.3517 16.5025 17.6502 16.344 17.8986C16.1855 18.1469 15.8394 18.065 15.644 18.2552C15.5881 18.3005 15.542 18.3567 15.5086 18.4204C15.4752 18.4842 15.4552 18.554 15.4498 18.6258C15.4443 18.6975 15.4536 18.7696 15.477 18.8376C15.5004 18.9056 15.5374 18.9681 15.5858 19.0213C15.6516 19.0834 15.7308 19.1294 15.8173 19.1556C15.9038 19.1819 15.9952 19.1877 16.0844 19.1726C16.1735 19.1574 16.2579 19.1218 16.3309 19.0686C16.4039 19.0153 16.4636 18.9457 16.5052 18.8655C16.6478 18.6277 16.4576 18.3371 16.6241 18.102C16.7905 17.8669 17.1154 17.925 17.2924 17.7137Z" fill="#0C71BC"/>
<path d="M8.92891 17.9217C8.50358 18.1859 8.81003 19.018 9.30933 18.8807C9.79542 18.664 9.43878 17.7368 8.92891 17.9217Z" fill="#0C71BC"/>
<path d="M17.4353 19.0211C17.8659 19.243 18.3678 18.7041 18.175 18.2814C18.1478 18.222 18.1078 18.1694 18.0579 18.1273C18.0081 18.0851 17.9495 18.0545 17.8864 18.0376C17.8233 18.0207 17.7573 18.0179 17.693 18.0295C17.6287 18.041 17.5678 18.0666 17.5145 18.1044C17.2002 18.2761 17.0787 18.8203 17.4353 19.0211Z" fill="#0C71BC"/>
<path d="M11.9799 19.0497C12.0497 19.1077 12.1327 19.1474 12.2216 19.1655C12.3105 19.1835 12.4025 19.1792 12.4893 19.1531C12.5762 19.1269 12.6552 19.0797 12.7193 19.0155C12.7835 18.9514 12.8308 18.8724 12.857 18.7856C12.8745 18.6778 12.8619 18.5673 12.8206 18.4663C12.7792 18.3653 12.7108 18.2776 12.6227 18.2131C12.5347 18.1486 12.4305 18.1097 12.3217 18.1006C12.2129 18.0916 12.1038 18.1129 12.0063 18.1621C11.9307 18.2077 11.8677 18.2716 11.8231 18.3479C11.7786 18.4242 11.7538 18.5104 11.7512 18.5987C11.7486 18.687 11.7681 18.7746 11.8081 18.8534C11.848 18.9321 11.9071 18.9997 11.9799 19.0497Z" fill="#0C71BC"/>
<path d="M9.67392 19.1692C9.40974 19.3013 9.42295 19.6976 9.59995 19.8905C9.77695 20.0833 10.1442 20.2154 10.3238 19.9671C10.5668 19.5814 10.1019 19.0055 9.67392 19.1692Z" fill="#0C71BC"/>
<path d="M18.334 19.1659C18.0223 19.2742 17.7898 19.6943 18.0038 19.9901C18.2971 20.2913 18.7963 19.9901 18.8413 19.6097C18.8596 19.5419 18.8585 19.4704 18.8382 19.4031C18.8178 19.3359 18.779 19.2758 18.7261 19.2295C18.6733 19.1833 18.6085 19.1528 18.5392 19.1416C18.4699 19.1303 18.3988 19.1388 18.334 19.1659Z" fill="#0C71BC"/>
<path d="M12.9154 21.1081C13.0633 20.9285 12.8493 20.696 12.9656 20.5031C13.1346 20.2654 13.4939 20.3895 13.6815 20.1703C13.7265 20.1248 13.7612 20.0703 13.7834 20.0104C13.8057 19.9504 13.8148 19.8864 13.8103 19.8227C13.8058 19.7589 13.7878 19.6968 13.7573 19.6406C13.7269 19.5844 13.6848 19.5353 13.6339 19.4966C13.5693 19.4392 13.4928 19.3969 13.4098 19.3728C13.3268 19.3488 13.2395 19.3435 13.1542 19.3574C13.0689 19.3713 12.9878 19.4041 12.9168 19.4533C12.8458 19.5025 12.7866 19.5669 12.7436 19.6419C12.6116 19.8612 12.8757 20.1703 12.6512 20.3446C12.5921 20.3924 12.5203 20.4218 12.4447 20.4292C12.3691 20.4366 12.293 20.4217 12.2258 20.3863C12.1586 20.3508 12.1032 20.2965 12.0666 20.2299C12.03 20.1633 12.0137 20.0875 12.0198 20.0118C12.039 19.908 12.0306 19.801 11.9952 19.7016C11.9599 19.6022 11.8989 19.5138 11.8185 19.4455C11.7381 19.3772 11.6411 19.3312 11.5373 19.3124C11.4335 19.2935 11.3265 19.3024 11.2273 19.3381C10.9631 19.4596 10.9921 19.7846 11.0608 20.0197C11.1295 20.2548 10.868 20.342 10.6936 20.342C10.6023 20.339 10.5134 20.3714 10.4455 20.4325C10.3775 20.4935 10.3358 20.5785 10.329 20.6696C10.3 21.1187 10.9684 21.4251 11.2616 21.0632C11.4175 20.8518 11.1321 20.585 11.3091 20.3895C11.5443 20.1438 11.9722 20.4397 11.922 20.7462C11.8269 21.2613 12.6327 21.507 12.9154 21.1081Z" fill="#0C71BC"/>
<path d="M17.3349 20.2442C17.1473 20.0381 17.4115 19.7634 17.2847 19.5362C17.2348 19.4337 17.1477 19.3543 17.0411 19.314C16.9345 19.2737 16.8166 19.2757 16.7114 19.3196C16.3997 19.4094 16.1566 19.8056 16.3574 20.1121C16.5001 20.3366 16.7933 20.2389 16.9914 20.3763C17.2054 20.5797 16.8779 20.8809 17.076 21.0948C17.4168 21.47 18.1697 21.0129 17.9504 20.5348C17.8342 20.268 17.5172 20.3921 17.3349 20.2442Z" fill="#0C71BC"/>
<path d="M15.6099 19.8477C15.6416 19.4593 15.1555 19.2427 14.8411 19.3986C14.7729 19.421 14.7107 19.4585 14.6589 19.5081C14.6071 19.5578 14.567 19.6184 14.5417 19.6855C14.5164 19.7526 14.5064 19.8246 14.5125 19.8961C14.5186 19.9676 14.5406 20.0368 14.5769 20.0987C14.8332 20.5002 15.5861 20.3417 15.6099 19.8477Z" fill="#0C71BC"/>
<path d="M14.7306 21.3215C14.5774 21.1841 14.7121 20.9859 14.6804 20.8195C14.6494 20.7469 14.6036 20.6814 14.546 20.6273C14.4885 20.5732 14.4203 20.5315 14.3459 20.505C14.2715 20.4785 14.1924 20.4676 14.1136 20.4731C14.0348 20.4785 13.9579 20.5003 13.8879 20.5368C13.8333 20.5571 13.7841 20.5898 13.7442 20.6322C13.7042 20.6747 13.6747 20.7258 13.6578 20.7815C13.6409 20.8373 13.6372 20.8962 13.6468 20.9537C13.6565 21.0111 13.6793 21.0656 13.7135 21.1128C13.8879 21.3611 14.2419 21.2475 14.4532 21.4377C14.5985 21.5936 14.3661 21.8419 14.5721 21.9661C14.8363 22.1695 15.4465 22.1166 15.4756 21.7019C15.3858 21.3716 14.9657 21.4747 14.7306 21.3215Z" fill="#0C71BC"/>
<path d="M15.6465 20.5213C15.5879 20.5399 15.5341 20.5713 15.489 20.6131C15.4439 20.6549 15.4086 20.7062 15.3857 20.7632C15.3627 20.8203 15.3526 20.8817 15.3562 20.9431C15.3597 21.0045 15.3767 21.0643 15.4061 21.1184C15.4761 21.1895 15.563 21.2416 15.6588 21.2697C15.7545 21.2978 15.8558 21.3011 15.9532 21.2791C16.0505 21.2572 16.1406 21.2108 16.215 21.1443C16.2894 21.0778 16.3456 20.9934 16.3783 20.8991C16.4337 20.516 15.9318 20.3549 15.6465 20.5213Z" fill="#0C71BC"/>
<path d="M13.0554 21.4808C12.9998 21.491 12.9489 21.5188 12.9102 21.5601C12.8715 21.6014 12.8471 21.6541 12.8406 21.7103C12.8341 21.7665 12.8458 21.8233 12.874 21.8724C12.9022 21.9214 12.9454 21.9601 12.9973 21.9828C13.2615 22.1386 13.7661 22.1439 13.848 21.7899C13.8083 21.4385 13.3275 21.3487 13.0554 21.4808Z" fill="#0C71BC"/>
<path d="M4.37177 22.2545C4.2289 21.7972 3.94434 21.3972 3.55921 21.1123C3.17409 20.8274 2.70834 20.6723 2.22928 20.6694C2.08359 20.6699 1.93836 20.6858 1.79603 20.717C1.35624 20.8053 0.953148 21.0238 0.639065 21.344C0.324981 21.6643 0.114406 22.0715 0.0346643 22.513C-0.0450773 22.9544 0.00969632 23.4096 0.191877 23.8195C0.374058 24.2294 0.675236 24.5751 1.05633 24.8117C1.41122 25.0384 1.82405 25.1576 2.24513 25.1552C2.46901 25.1542 2.69153 25.1204 2.90558 25.0548C3.11758 24.9905 3.31816 24.8934 3.49998 24.7668C3.89489 24.4964 4.19268 24.1064 4.34959 23.6542C4.5065 23.202 4.51428 22.7114 4.37177 22.2545ZM27.6856 21.3642C27.4747 21.1466 27.2222 20.9736 26.943 20.8556C26.6639 20.7376 26.3639 20.677 26.0609 20.6773C25.9118 20.6772 25.7631 20.6922 25.617 20.7222C25.0546 20.841 24.5592 21.171 24.2327 21.6442C24.066 21.8885 23.9491 22.1633 23.889 22.4529C23.8289 22.7425 23.8266 23.0411 23.8823 23.3316C23.9381 23.6221 24.0507 23.8987 24.2138 24.1454C24.3768 24.3922 24.5871 24.6043 24.8324 24.7695C25.1908 25.0198 25.6185 25.1518 26.0556 25.1472C26.4353 25.1491 26.8098 25.0584 27.1466 24.8831C27.47 24.7134 27.7432 24.462 27.9392 24.1539C28.2176 23.7291 28.3443 23.2226 28.2987 22.7167C28.2532 22.2108 28.038 21.7351 27.6882 21.3668L27.6856 21.3642ZM4.26874 8.15524C4.08754 7.76656 3.79907 7.43774 3.43729 7.20747C3.07552 6.9772 2.65548 6.85508 2.22664 6.85548C2.01779 6.85536 1.81017 6.88743 1.6111 6.95059C1.09959 7.10482 0.660362 7.4374 0.37318 7.88791C0.085998 8.33841 -0.030088 8.87698 0.0460046 9.40579C0.122097 9.9346 0.385322 10.4186 0.787873 10.7698C1.19042 11.1211 1.7056 11.3163 2.23985 11.3201C2.4886 11.3203 2.73573 11.2801 2.97162 11.2012C3.19865 11.1251 3.41056 11.0098 3.59773 10.8604C4.0003 10.5516 4.28598 10.1152 4.4079 9.62271C4.52983 9.13021 4.48076 8.6109 4.26874 8.14996V8.15524ZM16.3444 29.3133C16.2371 28.8092 15.9605 28.3569 15.5607 28.0315C15.1609 27.7062 14.6618 27.5274 14.1464 27.5248C13.9578 27.5248 13.7701 27.5515 13.589 27.6041C13.3083 27.6771 13.0449 27.8047 12.8137 27.9797C12.5825 28.1547 12.3881 28.3736 12.2417 28.6238C11.9404 29.1124 11.8454 29.7005 11.9775 30.2591C12.093 30.7537 12.3716 31.1951 12.7683 31.5123C13.1651 31.8295 13.6569 32.0041 14.1649 32.008C14.3433 32.0088 14.521 31.9857 14.6932 31.9393C14.9763 31.8714 15.2432 31.7482 15.4785 31.5769C15.7138 31.4055 15.9129 31.1893 16.0643 30.9407C16.2164 30.7005 16.3194 30.4325 16.3674 30.1523C16.4155 29.8721 16.4076 29.5852 16.3444 29.3081V29.3133ZM27.8626 7.74841C27.652 7.46924 27.3794 7.24296 27.0662 7.08751C26.753 6.93206 26.4079 6.85171 26.0582 6.85284C25.7743 6.8507 25.493 6.90643 25.2313 7.01663C24.7487 7.21507 24.3504 7.57558 24.1049 8.03608C23.8595 8.49658 23.7823 9.02825 23.8867 9.53954C23.9845 10.02 24.2388 10.4545 24.6096 10.7752C24.9805 11.0959 25.4472 11.2847 25.9367 11.3122H26.0926C26.5058 11.3093 26.9101 11.1917 27.2604 10.9726C27.6108 10.7535 27.8934 10.4414 28.0769 10.0711C28.2604 9.70088 28.3375 9.28696 28.2997 8.87546C28.2618 8.46397 28.1105 8.07106 27.8626 7.74048V7.74841ZM16.2176 1.36848C16.0417 0.962829 15.7514 0.617287 15.3821 0.374215C15.0128 0.131142 14.5806 0.0011026 14.1385 3.6399e-05C13.8961 -0.00141651 13.6554 0.0406379 13.4278 0.124201C13.1386 0.221814 12.873 0.378655 12.6478 0.584712C12.4227 0.790768 12.2429 1.04151 12.1201 1.32093C11.9932 1.59051 11.9236 1.88352 11.9159 2.1814C11.9082 2.47928 11.9624 2.77551 12.0752 3.0513C12.2428 3.47393 12.5343 3.83592 12.9116 4.08962C13.2888 4.34332 13.7341 4.47683 14.1887 4.47259C14.5074 4.47505 14.8223 4.40266 15.108 4.26124C15.6379 4.01353 16.0481 3.5662 16.2493 3.01696C16.4561 2.48472 16.4447 1.89238 16.2176 1.36848Z" fill="#F4F8FA"/>
<path d="M4.63868 7.97789C4.69102 8.08537 4.73517 8.19664 4.77077 8.31076C5.53689 7.86694 6.53549 7.28046 7.20386 6.89212C8.69383 6.03089 10.6382 4.92134 12.2074 4.02049C11.9847 3.78414 11.8113 3.50572 11.6975 3.20154C11.6791 3.15663 11.6606 3.10908 11.6447 3.06152C9.55241 4.2609 7.07705 5.68218 5.07458 6.84457L4.22656 7.34386C4.39543 7.53298 4.53441 7.74679 4.63868 7.97789Z" fill="#F4F8FA"/>
<path d="M16.6241 3.17006C16.5057 3.47589 16.3329 3.7578 16.1143 4.00223C16.2833 4.11318 16.4656 4.22414 16.5422 4.26641C17.4986 4.81061 18.4681 5.37332 19.4033 5.91753C20.6185 6.62288 22.2326 7.57129 23.5403 8.31363C23.6504 7.961 23.8301 7.63402 24.0687 7.35202C21.6197 5.9413 18.7191 4.23206 16.6717 3.0459C16.6585 3.07496 16.6426 3.11987 16.6241 3.17006Z" fill="#F4F8FA"/>
<path d="M26.6317 19.0212C26.6317 18.2286 26.6317 17.4361 26.6317 16.6435V16.4903C26.6317 14.7045 26.6317 12.7152 26.6317 11.7615V11.6611C26.4583 11.7 26.2812 11.7203 26.1034 11.7219H25.9264C25.7931 11.7162 25.6606 11.6994 25.5301 11.6717V11.7668C25.5301 12.3638 25.5301 13.3281 25.5301 14.4086C25.5301 15.3121 25.5301 16.2895 25.5301 17.1878C25.5238 17.3039 25.5238 17.4203 25.5301 17.5365C25.5301 17.6316 25.5301 17.7214 25.5301 17.8007V17.8165C25.5301 17.9116 25.5301 18.0094 25.5301 18.1124C25.5301 18.2154 25.5301 18.3634 25.5301 18.4902V18.654V18.9181C25.5301 19.0502 25.5301 19.1823 25.5301 19.3144V19.9458C25.5301 19.9933 25.5301 20.1677 25.5301 20.3473H25.5486C25.7223 20.3107 25.8994 20.2921 26.077 20.2919C26.2679 20.2918 26.4583 20.3122 26.645 20.3526C26.645 19.9458 26.645 19.4333 26.645 19.1876L26.6317 19.0212Z" fill="#F4F8FA"/>
<path d="M23.551 23.6914L21.2526 25.0123C19.6676 25.9264 17.7496 27.0465 16.1064 27.9764C16.3656 28.2522 16.5597 28.5826 16.6744 28.9433C18.0429 28.1507 19.6914 27.1944 21.007 26.4362L24.0899 24.6583C23.844 24.3777 23.6604 24.0481 23.551 23.6914Z" fill="#F4F8FA"/>
<path d="M2.22918 20.2759C2.41949 20.277 2.60909 20.2991 2.79452 20.3419C2.79452 19.8426 2.79452 19.3618 2.79452 19.198C2.79452 18.6697 2.80773 18.1413 2.77075 17.5998C2.79981 16.8601 2.79716 16.1098 2.79188 15.3833C2.79188 14.8761 2.79188 14.3504 2.79188 13.8352C2.79188 13.5314 2.79188 13.225 2.79188 12.9212C2.79188 12.6173 2.79188 12.0705 2.79188 11.6689C2.60944 11.7073 2.42354 11.7268 2.23711 11.7271C2.04979 11.727 1.86298 11.7076 1.67969 11.6689C1.67969 12.2977 1.67969 13.2065 1.67969 13.8352C1.67969 14.0281 1.67969 14.2236 1.67969 14.4164C1.67969 14.8655 1.67969 15.3305 1.67969 15.7875C1.67969 16.1336 1.67969 16.4876 1.67969 16.8442V17.3118C1.67969 17.8402 1.67969 18.3949 1.67969 18.9365C1.67969 19.1162 1.67969 19.2984 1.67969 19.4649C1.67969 19.5653 1.67969 19.9298 1.67969 20.3314H1.72988C1.89397 20.2958 2.06128 20.2772 2.22918 20.2759Z" fill="#F4F8FA"/>
<path d="M11.8878 28.4076C11.978 28.2579 12.0824 28.1173 12.1995 27.9875C10.0094 26.7353 7.50766 25.2797 5.38367 24.0407L4.75492 23.6973C4.64855 24.0562 4.46861 24.3891 4.22656 24.6747C5.28328 25.285 6.69135 26.0828 7.53144 26.5689L11.65 28.9465C11.7094 28.7587 11.7891 28.578 11.8878 28.4076Z" fill="#F4F8FA"/>
<path d="M9.01054 12.3847C8.7963 12.6878 8.60974 13.0097 8.45313 13.3463L5.44941 11.6238C5.06371 11.3993 4.65687 11.1694 4.27382 10.9475L4.17871 10.8947C4.42996 10.6214 4.62079 10.2983 4.73877 9.94629L4.81802 9.98856C5.28034 10.2369 5.74001 10.5169 6.18383 10.7652L9.01054 12.3847Z" fill="#F4F8FA"/>
<path d="M9.05585 19.6789C7.624 20.4715 5.44453 21.6655 4.84484 22.0275L4.75502 22.0856C4.63686 21.7227 4.43818 21.3913 4.17383 21.1161L4.28214 21.0553C4.96636 20.6722 5.65587 20.2628 6.32424 19.8823L8.48787 18.7041C8.64708 19.0457 8.8372 19.372 9.05585 19.6789Z" fill="#F4F8FA"/>
<path d="M14.7118 6.39344V9.73531C14.5357 9.7177 14.3499 9.70889 14.1544 9.70889C13.9589 9.70889 13.774 9.7177 13.5996 9.73531C13.5996 8.33516 13.5996 6.52817 13.5996 6.25607C13.5996 5.81225 13.5996 5.37107 13.5996 4.93517V4.82422C13.7912 4.86787 13.987 4.89003 14.1834 4.89026C14.361 4.89038 14.5381 4.87178 14.7118 4.83479V4.93517C14.7118 5.41862 14.7118 5.90471 14.7118 6.39344Z" fill="#F4F8FA"/>
<path d="M14.7121 27.0807V27.1758C14.5266 27.1335 14.337 27.1122 14.1467 27.1124C13.9637 27.1124 13.7811 27.1328 13.6025 27.1732V27.0702C13.6025 26.6977 13.6025 26.3199 13.6025 25.9553C13.6025 25.6304 13.6025 23.7415 13.6025 22.2568C13.7787 22.2744 13.9636 22.2833 14.1573 22.2833C14.351 22.2833 14.5369 22.2744 14.7147 22.2568C14.7147 23.7336 14.7147 25.6225 14.7147 25.9553C14.7147 26.3226 14.7147 26.7056 14.7121 27.0807Z" fill="#F4F8FA"/>
<path d="M24.1374 10.8812L24.0423 10.9341C23.6434 11.1586 23.2498 11.3911 22.8535 11.6157C22.6554 11.7293 21.1919 12.6063 19.8762 13.3883C19.7235 13.0532 19.5413 12.7323 19.332 12.4293C20.9779 11.4545 23.0068 10.2446 23.477 9.96719L23.5642 9.91699C23.6834 10.2761 23.8789 10.605 24.1374 10.8812Z" fill="#F4F8FA"/>
<path d="M24.1373 21.1128C24.0499 21.2062 23.9695 21.306 23.8969 21.4113C23.7505 21.6154 23.6365 21.8409 23.5588 22.0797L23.4716 22.0269C22.9961 21.7442 20.8906 20.5316 19.2949 19.6176C19.51 19.3135 19.6974 18.9908 19.855 18.6533L21.9077 19.8316L22.436 20.1354C22.9644 20.4418 23.5059 20.7588 24.0449 21.06L24.1373 21.1128Z" fill="#F4F8FA"/>
<path d="M33.344 11.5684H31.4736V20.4289H33.344V11.5684Z" fill="#F4F8FA"/>
<path d="M38.6968 11.5684H35.0273V20.4316H38.6968C41.3386 20.4316 43.1508 18.6853 43.1508 16.0013C43.1508 13.3172 41.3386 11.5684 38.6968 11.5684ZM38.6043 18.7567H36.8977V13.2538H38.6043C40.2079 13.2538 41.2461 14.3105 41.2461 16.0013C41.2461 17.692 40.2079 18.7567 38.6043 18.7567Z" fill="#F4F8FA"/>
<path d="M49.9376 15.1377H44.3291V16.7333H49.9376V15.1377Z" fill="#0C71BC"/>
<path d="M50.4316 11.5684H44.3291V13.2142H50.4316V11.5684Z" fill="#F4F8FA"/>
<path d="M50.5822 18.7861H44.3291V20.432H50.5822V18.7861Z" fill="#F4F8FA"/>
<path d="M54.3784 11.5684L50.7803 20.4316H52.6956L53.4115 18.5321H57.1628L57.8788 20.4316H59.839L56.225 11.5684H54.3784ZM54.0085 16.9735L55.2898 13.5814L56.5711 16.9735H54.0085Z" fill="#F4F8FA"/>
<path d="M64.2449 11.418C61.6956 11.418 59.8252 13.3676 59.8252 16.0015C59.8252 18.6353 61.6956 20.585 64.2449 20.585C66.7942 20.585 68.6646 18.6485 68.6646 16.0015C68.6646 13.3544 66.7837 11.418 64.2449 11.418ZM64.2449 18.8361C62.8025 18.8361 61.7167 17.6843 61.7167 16.0015C61.7167 14.3187 62.8025 13.1668 64.2449 13.1668C65.6873 13.1668 66.7731 14.3187 66.7731 16.0015C66.7731 17.6843 65.6873 18.8361 64.2449 18.8361Z" fill="#F4F8FA"/>
<path d="M71.7115 11.5684H69.8438V20.4316H75.7614V18.7593H71.7115V11.5684Z" fill="#F4F8FA"/>
<path d="M80.3553 11.418C77.8059 11.418 75.9355 13.3676 75.9355 16.0015C75.9355 18.6353 77.8059 20.585 80.3553 20.585C82.9046 20.585 84.775 18.6485 84.775 16.0015C84.775 13.3544 82.894 11.418 80.3553 11.418ZM80.3553 18.8361C78.9128 18.8361 77.8271 17.6843 77.8271 16.0015C77.8271 14.3187 78.9128 13.1668 80.3553 13.1668C81.7977 13.1668 82.8834 14.3187 82.8834 16.0015C82.8834 17.6843 81.7977 18.8361 80.3553 18.8361Z" fill="#F4F8FA"/>
<path d="M89.9789 13.1636C90.3803 13.1607 90.7772 13.2494 91.1393 13.4229C91.5014 13.5964 91.8192 13.8501 92.0685 14.1649L93.2547 12.9443C92.4621 11.9431 91.2918 11.4121 89.8732 11.4121C87.3001 11.4121 85.4297 13.3248 85.4297 15.9956C85.4297 18.6665 87.3001 20.5791 89.8362 20.5791C91.0205 20.5837 92.1714 20.187 93.1014 19.4537V15.7341H89.3105V17.4354H91.4054V18.4498C90.9657 18.7087 90.4626 18.8404 89.9524 18.8303C88.407 18.8303 87.3318 17.652 87.3318 15.9956C87.3318 14.3392 88.4096 13.1636 89.9789 13.1636Z" fill="#F4F8FA"/>
<path d="M99.7987 11.5684L97.6404 15.5073L95.482 11.5684H93.498L96.6259 17.2667V20.4316H98.4937V17.2905L101.632 11.5684H99.7987Z" fill="#F4F8FA"/>
</g>
<defs>
<clipPath id="clip0">
<rect width="101.632" height="32" fill="white"/>
</clipPath>
</defs>
</svg>
