<svg id="Calque_1" data-name="Calque 1" xmlns="http://www.w3.org/2000/svg" xmlns:xlink="http://www.w3.org/1999/xlink" viewBox="0 0 3217.79 2138.85"><defs><linearGradient id="Dégradé_sans_nom_2" x1="2316.31" y1="659.03" x2="2316.31" y2="1065.8" gradientUnits="userSpaceOnUse"><stop offset="0" stop-color="#615047"/><stop offset="1" stop-color="#392f2f"/></linearGradient><linearGradient id="Dégradé_sans_nom_20" x1="1552.6" y1="530.58" x2="1552.6" y2="1027.75" gradientUnits="userSpaceOnUse"><stop offset="0" stop-color="#9e672c"/><stop offset="1" stop-color="#f6a23e"/></linearGradient><linearGradient id="Dégradé_sans_nom_27" x1="1814.38" y1="512.54" x2="2238.86" y2="512.54" gradientUnits="userSpaceOnUse"><stop offset="0" stop-color="#b1b1b1"/><stop offset="1" stop-color="#868686"/></linearGradient><linearGradient id="Dégradé_sans_nom_28" x1="1467.05" y1="1071.01" x2="2251.02" y2="1071.01" gradientUnits="userSpaceOnUse"><stop offset="0" stop-color="#868686"/><stop offset="1" stop-color="#b1b1b1"/></linearGradient><clipPath id="clip-path" transform="translate(-315.52 -231.8)"><path d="M1935.85,365.47s-249,86.41-424.5,427.81c0,0,122.53,296.23,424.5,427.23,0,0,261-97.37,424.5-427.23C2360.35,793.28,2219.8,491.28,1935.85,365.47Z" style="fill:none"/></clipPath><linearGradient id="Dégradé_sans_nom_20-2" x1="1536.58" y1="561.16" x2="2152.83" y2="1177.41" xlink:href="#Dégradé_sans_nom_20"/><linearGradient id="Dégradé_sans_nom_20-3" x1="1625.76" y1="471.98" x2="2242.01" y2="1088.23" xlink:href="#Dégradé_sans_nom_20"/><linearGradient id="Dégradé_sans_nom_20-4" x1="1667.82" y1="429.92" x2="2284.07" y2="1046.17" xlink:href="#Dégradé_sans_nom_20"/><linearGradient id="Dégradé_sans_nom_20-5" x1="1643.79" y1="453.95" x2="2260.04" y2="1070.2" xlink:href="#Dégradé_sans_nom_20"/></defs><path d="M518.48,2137.72c-56.66,0-108.15-21.89-145-61.64-35.17-38-54.54-88.71-54.54-142.88v-1.12c0-54.17,19.57-105.11,55.1-143.44,37.17-40.11,88.85-62.2,145.51-62.2s108.14,21.89,145,61.64c34.94,37.71,54.28,88,54.54,141.79a3.51,3.51,0,0,1,0,3.3c-.26,53.76-19.8,104.27-55.1,142.36C626.82,2115.63,575.14,2137.72,518.48,2137.72Zm0-378.11c-92.6,0-162.42,73.67-162.42,171.35v1.12c0,96.71,71.83,172.47,163.53,172.47,92.6,0,162.42-73.66,162.42-171.35v-1.12C682,1835.37,610.18,1759.61,518.48,1759.61Z" transform="translate(-315.52 -231.8)" style="fill:#f6a23e"/><path d="M519.59,1729.9c118.41,0,196,94.39,196,201.06.56.56.56.56,0,1.12,0,106.67-78.75,202.18-197.16,202.18s-196-94.39-196-201.06v-1.12c0-106.68,78.75-202.18,197.15-202.18m0,378.11c96.62,0,165.88-78.19,165.88-174.81v-1.12c0-96.62-70.37-175.93-167-175.93S352.6,1834.34,352.6,1931v1.12c0,96.62,70.37,175.93,167,175.93m0-385c-57.64,0-110.21,22.48-148,63.3-36.12,39-56,90.76-56,145.8v1.12c0,55,19.7,106.62,55.46,145.23,37.48,40.47,89.86,62.75,147.49,62.75s110.22-22.48,148.06-63.3c35.73-38.56,55.58-89.63,56-144a6.73,6.73,0,0,0,0-4.72c-.42-54.37-20.08-105.25-55.45-143.43-37.48-40.47-89.86-62.75-147.5-62.75Zm0,378.11c-44.24,0-85-17.59-114.66-49.52-29.28-31.49-45.41-73.93-45.41-119.49V1931c0-45.57,15.93-87.8,44.85-118.92,29.35-31.58,69.87-49,114.1-49s85,17.59,114.67,49.53c29.28,31.49,45.41,73.92,45.41,119.48v1.12c0,45.57-15.93,87.8-44.86,118.93-29.34,31.57-69.86,49-114.1,49Z" transform="translate(-315.52 -231.8)" style="fill:#f6a23e"/><path d="M811,2131V1733.15H956.31c90.31,0,148.67,48.27,148.67,123v1.11c0,39.69-16.27,72.83-47,95.83-27.76,20.75-66.43,32.18-108.89,32.18H847V2131Zm139.73-179.5c70.76,0,118.3-37.22,118.3-92.6v-1.12c0-56.93-43-90.93-114.94-90.93H847v184.65Z" transform="translate(-315.52 -231.8)" style="fill:#1d1d1b"/><path d="M956.31,1736.6c86,0,145.21,44.13,145.21,119.53v1.11c0,82.1-70.93,124.55-152.47,124.55H843.49v145.77h-29v-391H956.31M843.49,1955H950.72c72.61,0,121.76-38,121.76-96.06v-1.12c0-62-48-94.39-118.4-94.39H843.49V1955m112.82-225.3H807.53v404.8h42.88V1988.71h98.64c43.2,0,82.6-11.67,111-32.87,31.68-23.68,48.43-57.78,48.43-98.6v-1.11c0-76.81-59.71-126.45-152.13-126.45Zm-105.9,40.65H954.08c33.9,0,62,7.79,81.39,22.53,20,15.21,30.09,37.06,30.09,64.94v1.12c0,26.2-10.72,48.46-31,64.36-20.67,16.21-49.66,24.78-83.84,24.78H850.41V1770.33Z" transform="translate(-315.52 -231.8)" style="fill:#1d1d1b"/><polygon points="1147.78 1899.22 1147.78 1716.03 904.49 1716.03 904.49 1899.22 868.52 1899.22 868.52 1501.35 904.49 1501.35 904.49 1682.3 1147.78 1682.3 1147.78 1501.35 1183.74 1501.35 1183.74 1899.22 1147.78 1899.22" style="fill:#1d1d1b"/><path d="M1495.8,1736.6v391h-29V1944.37H1216.55v183.19h-29v-391h29v181h250.21v-181h29m6.92-6.92h-42.88v181H1223.47v-181h-42.88v404.8h42.88V1951.29h236.37v183.19h42.88v-404.8Z" transform="translate(-315.52 -231.8)" style="fill:#1d1d1b"/><polygon points="1401.31 1899.22 1401.31 1535.07 1265.04 1535.07 1265.04 1501.35 1573.55 1501.35 1573.55 1535.07 1437.28 1535.07 1437.28 1899.22 1401.31 1899.22" style="fill:#1d1d1b"/><path d="M1885.61,1736.6v26.81H1749.34v364.15h-29V1763.41H1584V1736.6h301.59m6.92-6.92H1577.1v40.65h136.28v364.15h42.88V1770.33h136.27v-40.65Z" transform="translate(-315.52 -231.8)" style="fill:#1d1d1b"/><path d="M2248.07,2131l-49.71-109.47h-226.2L1922.45,2131h-37.8l185.27-400.67h32.35L2287.55,2131Zm-65.14-142.64L2085.53,1774l-97.93,214.39Z" transform="translate(-315.52 -231.8)" style="fill:#1d1d1b"/><path d="M2100.06,1733.81l182.07,393.75H2250.3l-49.71-109.47H1969.93l-49.71,109.47h-30.16l182.07-393.75h27.93m-117.84,258H2188.3l-102.76-226.19-103.32,226.19m122.27-264.95h-36.78l-1.86,4-182.07,393.74-4.54,9.83h45.44l1.84-4.06L1974.39,2025h221.74L2244,2130.42l1.84,4.06H2293l-4.55-9.83-182.07-393.74-1.85-4Zm-111.51,258,92.54-202.58,92,202.58Z" transform="translate(-315.52 -231.8)" style="fill:#1d1d1b"/><polygon points="2025.67 1899.22 2025.67 1878.38 2289.64 1534.52 2035.17 1534.52 2035.17 1501.35 2341.44 1501.35 2341.44 1522.17 2077.48 1866.05 2341.44 1866.05 2341.44 1899.22 2025.67 1899.22" style="fill:#1d1d1b"/><path d="M2653.51,1736.6v16.2L2386,2101.31h267.53v26.25H2344.66v-16.2l267.52-348.51h-258V1736.6h299.36m6.92-6.92h-313.2v40.09h250.91l-259,337.38-1.43,1.86v25.47h322.69v-40.09H2400L2659,1757l1.44-1.86v-25.47Z" transform="translate(-315.52 -231.8)" style="fill:#1d1d1b"/><path d="M2905.37,2137.72c-56.66,0-108.14-21.89-145-61.64-35.17-38-54.53-88.71-54.53-142.88v-1.12c0-54.17,19.56-105.11,55.09-143.44,37.17-40.11,88.85-62.2,145.52-62.2s108.14,21.89,145,61.64c34.94,37.71,54.29,88,54.54,141.79a3.45,3.45,0,0,1,0,3.3c-.25,53.76-19.8,104.27-55.09,142.36C3013.71,2115.63,2962,2137.72,2905.37,2137.72Zm0-378.11c-92.59,0-162.41,73.67-162.41,171.35v1.12c0,96.71,71.83,172.47,163.53,172.47,92.59,0,162.41-73.66,162.41-171.35v-1.12C3068.9,1835.37,2997.07,1759.61,2905.37,1759.61Z" transform="translate(-315.52 -231.8)" style="fill:#1d1d1b"/><path d="M2906.49,1729.9c118.4,0,196,94.39,196,201.06.56.56.56.56,0,1.12,0,106.67-78.75,202.18-197.15,202.18s-196-94.39-196-201.06v-1.12c0-106.68,78.74-202.18,197.15-202.18m0,378.11c96.62,0,165.87-78.19,165.87-174.81v-1.12c0-96.62-70.37-175.93-167-175.93S2739.5,1834.34,2739.5,1931v1.12c0,96.62,70.37,175.93,167,175.93m0-385c-57.64,0-110.22,22.48-148,63.3-36.13,39-56,90.76-56,145.8v1.12c0,55,19.69,106.62,55.45,145.23,37.48,40.47,89.86,62.75,147.5,62.75s110.22-22.48,148.05-63.3c35.73-38.56,55.59-89.63,56-144a6.84,6.84,0,0,0,0-4.72c-.43-54.37-20.08-105.25-55.46-143.43-37.48-40.47-89.86-62.75-147.49-62.75Zm0,378.11c-44.24,0-85-17.59-114.66-49.52-29.29-31.49-45.41-73.93-45.41-119.49V1931c0-45.57,15.92-87.8,44.85-118.92,29.34-31.58,69.86-49,114.1-49s85,17.59,114.66,49.53c29.29,31.49,45.41,73.92,45.41,119.48v1.12c0,45.57-15.93,87.8-44.85,118.93-29.35,31.57-69.87,49-114.1,49Z" transform="translate(-315.52 -231.8)" style="fill:#1d1d1b"/><polygon points="3187.42 1899.22 2917.21 1558.3 2917.21 1899.22 2882.36 1899.22 2882.36 1501.35 2914.86 1501.35 3179.48 1835 3179.48 1501.35 3214.33 1501.35 3214.33 1899.22 3187.42 1899.22" style="fill:#1d1d1b"/><path d="M3526.4,1736.6v391h-21.79l-275.34-347.4v347.4h-27.93v-391h27.37l269.76,340.13V1736.6h27.93m6.92-6.92h-41.77v327.19L3234.13,1732.3l-2.08-2.62h-37.63v404.8h41.77V1800l263,331.82,2.08,2.62h32.05v-404.8Z" transform="translate(-315.52 -231.8)" style="fill:#1d1d1b"/><path d="M2351.12,394.49c59.13,110.14,79.72,242.68,9.23,398.79-17.35,38.43-40.11,78.27-69.3,119.57-120.69,170.81-245.48,261.38-355.2,307.66,148.76,62.75,269.76,44,315.17,33a969.75,969.75,0,0,0,106.13-74.3c207.61-166.12,339.62-394.48,339.62-394.48S2561.43,557.59,2351.12,394.49Z" transform="translate(-315.52 -231.8)" style="fill:url(#Dégradé_sans_nom_2)"/><path d="M1605.39,336.47a1019.85,1019.85,0,0,0-85.4,59.14c-212.18,163-350.64,389.08-350.64,389.08s135.15,227.41,344.7,393.45c-53.68-107.31-70-235.25-2.7-384.86,17.4-38.65,40.27-78.72,69.64-120.29,120.56-170.63,245.22-261.2,354.86-307.52C1765.12,293.34,1630.86,328.57,1605.39,336.47Z" transform="translate(-315.52 -231.8)" style="fill:url(#Dégradé_sans_nom_20)"/><path d="M2351.12,394.49c-25.88-20.08-52.91-39.17-81-56.77C2170.54,275.22,2058,231.8,1937.62,231.8c-119.58,0-232.09,42.85-332.23,104.67,25.47-7.9,159.73-43.13,330.46,29,109.64,46.32,234.3,136.89,354.87,307.52,29.37,41.57,52.24,81.64,69.63,120.29C2430.84,637.17,2410.25,504.63,2351.12,394.49Z" transform="translate(-315.52 -231.8)" style="fill:url(#Dégradé_sans_nom_27)"/><path d="M1935.85,1220.51c-109.72-46.28-234.5-136.85-355.19-307.66-29.19-41.3-52-81.14-69.31-119.57-67.31,149.61-51,277.55,2.7,384.86a992.28,992.28,0,0,0,110,76.12c95.15,56.36,201,94.48,313.59,94.48,113.08,0,218.82-38.47,313.4-95.27C2205.61,1264.54,2084.61,1283.26,1935.85,1220.51Z" transform="translate(-315.52 -231.8)" style="fill:url(#Dégradé_sans_nom_28)"/><g style="clip-path:url(#clip-path)"><g style="opacity:0.25"><path d="M2112.56,1062.62s-55.42,26.72-52,82.14,47,1.46,52-22.5S2133.47,1081,2112.56,1062.62Z" transform="translate(-315.52 -231.8)" style="fill:url(#Dégradé_sans_nom_20-2)"/><path d="M2185.3,622c-69.13-.12-104.58-1.78-104.58-136.49s-83.32-118.77-106.36-106.36-91.5,88.63-134.38,72.68-87.19,23-92.51,35.45-105.47,24.82-44.32,46.09c18.61,7.09,31,47.86-42.54,35.45,0,0-21.27-2.66-13.29,50.52,3.54,20.54,55,34.56,74.44-6.21s74.45-67.35,93.07-28.36c6.2,15.07,31,9.35,32.79,20.63s-.89,21-14.18,21-10.64,4.43-1.77,8,11.52,11.53,20.38-9.74,16.18-10.64,19.17-22.16S1790.9,552,1829,550.18s45.2,62,66.47,85.08,8.86-35.45,29.25-36.34,8.86,42.85,42.54,40.93,48.75,11.36,39.88,23.77c-2.62,3.68-5.24,10-7.64,17.06A50.21,50.21,0,0,1,1952.12,715c-51.27.09-128.15-7.36-135.3-52C1806,595.43,1530.44,683,1599,833s180.42,52.66,220,175.67-1.6,242.56,113,246.9,54.64-154,130.5-286.13c59.27-103.22,8.24-127-16.92-132.41a29.32,29.32,0,0,1-19.81-14.85c-10.93-20.6-27.07-59.94-3.47-79,32.8-26.44,38.82,75.3,51.42,87.89,19.95,20,72.77,6.13,103-17.27,15.82-12.22,23.86-32.3,19.72-51.86-9.91-46.85-66.83,32.94-86.44-55-8-42.54,39.89,35.45,149.79,31.91,47.86-1.77,19.5,76.22,63.81,15.95S2348.38,618.42,2185.3,622Z" transform="translate(-315.52 -231.8)" style="fill:url(#Dégradé_sans_nom_20-3)"/><path d="M1692.52,471.3c-14.18,23-7.09,30.13,23.93,23s-10.64-65.59-10.64-65.59-20.38-42.54-37.22-13.29S1706.7,448.25,1692.52,471.3Z" transform="translate(-315.52 -231.8)" style="fill:url(#Dégradé_sans_nom_20-4)"/><path d="M1639.34,476.61c-11.82,5.91,13.29,14.18,28.66,1.78s-2.07-14.48,4.72-21.57-19.79-28.66-18.31-14.77c0,0,4.13,13-12.71,13S1651.16,470.71,1639.34,476.61Z" transform="translate(-315.52 -231.8)" style="fill:url(#Dégradé_sans_nom_20-5)"/></g></g><rect x="6.92" y="2079.08" width="865.06" height="3.46" style="fill:#1d1d1b"/><rect x="2345.81" y="2079.08" width="865.06" height="3.46" style="fill:#1d1d1b"/><path d="M1355.15,2254.25h9.44l44.6,104.83L1454,2254.25h9L1412.77,2369h-7.49Z" transform="translate(-315.52 -231.8)" style="fill:#1d1d1b;stroke:#1d1d1b;stroke-miterlimit:10"/><path d="M1485.37,2252.62h9.93v10.91h-9.93Zm1,32.56h8v83h-8Z" transform="translate(-315.52 -231.8)" style="fill:#1d1d1b;stroke:#1d1d1b;stroke-miterlimit:10"/><path d="M1552.6,2369.83a51.75,51.75,0,0,1-18.23-3.41,56.51,56.51,0,0,1-15.79-8.8l4.72-6.35a57.1,57.1,0,0,0,14.32,8.06,43.13,43.13,0,0,0,15.47,2.85,23.45,23.45,0,0,0,14.24-4.23,13.52,13.52,0,0,0,5.78-11.53v-.33a10.65,10.65,0,0,0-1.79-6.17,16.49,16.49,0,0,0-4.88-4.55,32.33,32.33,0,0,0-7-3.25c-2.6-.86-5.37-1.73-8.29-2.59q-5.06-1.47-10.18-3.09a41.48,41.48,0,0,1-9.2-4.14,21.48,21.48,0,0,1-6.59-6.26,16.17,16.17,0,0,1-2.52-9.26v-.32a20.48,20.48,0,0,1,2-9.18,22.72,22.72,0,0,1,5.62-7.23,25.54,25.54,0,0,1,8.62-4.79,34.36,34.36,0,0,1,11.07-1.71,50.69,50.69,0,0,1,15.38,2.5,52,52,0,0,1,14.09,6.78l-4.23,6.67a55.5,55.5,0,0,0-12.3-6,40.55,40.55,0,0,0-13.26-2.28q-8.64,0-13.76,4.15a12.75,12.75,0,0,0-5.12,10.31v.32a9.42,9.42,0,0,0,2,5.94,16.84,16.84,0,0,0,5.13,4.3,40.93,40.93,0,0,0,7.4,3.17q4.23,1.38,8.63,2.68c3.36,1,6.68,2,9.93,3.17a37,37,0,0,1,8.79,4.38,22,22,0,0,1,6.27,6.42,17.05,17.05,0,0,1,2.36,9.26v.32a22.29,22.29,0,0,1-2.2,10,22.55,22.55,0,0,1-6.1,7.63,28.29,28.29,0,0,1-9.12,4.87A35.8,35.8,0,0,1,1552.6,2369.83Z" transform="translate(-315.52 -231.8)" style="fill:#1d1d1b;stroke:#1d1d1b;stroke-miterlimit:10"/><path d="M1606.8,2252.62h9.94v10.91h-9.94Zm1,32.56h8v83h-8Z" transform="translate(-315.52 -231.8)" style="fill:#1d1d1b;stroke:#1d1d1b;stroke-miterlimit:10"/><path d="M1684,2370.15a40.63,40.63,0,0,1-17-3.5,43.46,43.46,0,0,1-13.43-9.36,42.1,42.1,0,0,1-8.87-13.67,43.6,43.6,0,0,1-3.17-16.6v-.33a43.58,43.58,0,0,1,12.12-30.44,43.08,43.08,0,0,1,13.59-9.52,41.28,41.28,0,0,1,17.1-3.5,40.7,40.7,0,0,1,17,3.5,43.57,43.57,0,0,1,13.43,9.36,41.94,41.94,0,0,1,8.87,13.67,43.6,43.6,0,0,1,3.17,16.6v.33a43.58,43.58,0,0,1-12.12,30.44,43,43,0,0,1-13.59,9.52A41.25,41.25,0,0,1,1684,2370.15Zm.33-7.65a32.88,32.88,0,0,0,13.66-2.83,33.59,33.59,0,0,0,10.79-7.62,34.5,34.5,0,0,0,7-11.26,37.51,37.51,0,0,0,2.54-13.78v-.32a37.42,37.42,0,0,0-2.62-14,35,35,0,0,0-7.28-11.42,33.75,33.75,0,0,0-11-7.62,33.35,33.35,0,0,0-13.49-2.75,32.88,32.88,0,0,0-13.66,2.83,33.53,33.53,0,0,0-10.79,7.62,34.69,34.69,0,0,0-7,11.26,37.51,37.51,0,0,0-2.53,13.78v.32a37.42,37.42,0,0,0,2.62,14,35,35,0,0,0,7.28,11.42,33.81,33.81,0,0,0,11,7.62A33.43,33.43,0,0,0,1684.29,2362.5Z" transform="translate(-315.52 -231.8)" style="fill:#1d1d1b;stroke:#1d1d1b;stroke-miterlimit:10"/><path d="M1751.35,2285.18h8v15.47a38.74,38.74,0,0,1,11.39-12.38q7.17-5,18.56-5a36.81,36.81,0,0,1,14,2.52,29.22,29.22,0,0,1,17,17.91,41.43,41.43,0,0,1,2.2,13.75v50.79h-8v-49.32q0-12.87-6.83-20.6t-19.54-7.73a29.09,29.09,0,0,0-11.39,2.2,28.33,28.33,0,0,0-9.12,6.11,27.65,27.65,0,0,0-6.1,9.35,31.68,31.68,0,0,0-2.2,12v48h-8Z" transform="translate(-315.52 -231.8)" style="fill:#1d1d1b;stroke:#1d1d1b;stroke-miterlimit:10"/><path d="M1904.85,2292.51h-12v-7.33h12V2277q0-14.33,7.33-21.65,6.51-6.51,17.42-6.51a40.38,40.38,0,0,1,6.67.49,33.56,33.56,0,0,1,5.7,1.46v7.49a50.55,50.55,0,0,0-6.35-1.63,35.23,35.23,0,0,0-6-.48q-16.77,0-16.77,21v8h29v7.33h-29v75.69h-8Z" transform="translate(-315.52 -231.8)" style="fill:#1d1d1b;stroke:#1d1d1b;stroke-miterlimit:10"/><path d="M1995.69,2370.15a40.63,40.63,0,0,1-17-3.5,43.46,43.46,0,0,1-13.43-9.36,42.13,42.13,0,0,1-8.88-13.67,43.79,43.79,0,0,1-3.17-16.6v-.33a43.75,43.75,0,0,1,3.17-16.6,43.21,43.21,0,0,1,22.55-23.36,41.24,41.24,0,0,1,17.09-3.5,40.63,40.63,0,0,1,17,3.5,43.46,43.46,0,0,1,13.43,9.36,41.94,41.94,0,0,1,8.87,13.67,43.61,43.61,0,0,1,3.18,16.6v.33a43.65,43.65,0,0,1-12.13,30.44,42.8,42.8,0,0,1-13.59,9.52A41.24,41.24,0,0,1,1995.69,2370.15Zm.32-7.65a32.88,32.88,0,0,0,13.66-2.83,33.37,33.37,0,0,0,10.79-7.62,34.69,34.69,0,0,0,7-11.26A37.51,37.51,0,0,0,2030,2327v-.32a37.61,37.61,0,0,0-2.61-14,35.18,35.18,0,0,0-7.28-11.42,33.86,33.86,0,0,0-11-7.62,33.42,33.42,0,0,0-13.49-2.75,32.85,32.85,0,0,0-13.66,2.83,33.68,33.68,0,0,0-10.8,7.62,34.67,34.67,0,0,0-7,11.26,37.51,37.51,0,0,0-2.53,13.78v.32a37.61,37.61,0,0,0,2.61,14,35.18,35.18,0,0,0,7.28,11.42,33.86,33.86,0,0,0,11,7.62A33.42,33.42,0,0,0,1996,2362.5Z" transform="translate(-315.52 -231.8)" style="fill:#1d1d1b;stroke:#1d1d1b;stroke-miterlimit:10"/><path d="M2063.08,2285.18h8v23.6a46.68,46.68,0,0,1,6.18-10.25,41,41,0,0,1,8.46-8.06,36.4,36.4,0,0,1,10.34-5,36.9,36.9,0,0,1,11.8-1.54v8.79H2107a35.56,35.56,0,0,0-13.68,2.68,32.78,32.78,0,0,0-11.47,8,39.09,39.09,0,0,0-7.9,13,50.24,50.24,0,0,0-2.92,17.83v34h-8Z" transform="translate(-315.52 -231.8)" style="fill:#1d1d1b;stroke:#1d1d1b;stroke-miterlimit:10"/><path d="M2222.11,2253.44h8.14l53.07,114.76H2274l-14.49-31.91h-67.23l-14.48,31.91h-8.79Zm33.86,75.2L2226,2262.72l-30.11,65.92Z" transform="translate(-315.52 -231.8)" style="fill:#1d1d1b;stroke:#1d1d1b;stroke-miterlimit:10"/><path d="M2307.41,2254.25h8.47v106.3h66.9v7.65h-75.37Z" transform="translate(-315.52 -231.8)" style="fill:#1d1d1b;stroke:#1d1d1b;stroke-miterlimit:10"/><path d="M2408.17,2254.25h8.46v106.3h66.91v7.65h-75.37Z" transform="translate(-315.52 -231.8)" style="fill:#1d1d1b;stroke:#1d1d1b;stroke-miterlimit:10"/></svg>