<svg id="Layer_1" data-name="Layer 1" xmlns="http://www.w3.org/2000/svg" viewBox="0 0 1000 270"><defs><style>.cls-1{fill:#fff;}</style></defs><title>logo-white</title><path class="cls-1" d="M233.34,241.51H87.57a14,14,0,0,1-14-14V124.26a5.91,5.91,0,0,1,11.81,0V227.5a2.19,2.19,0,0,0,2.19,2.2H233.34a2.2,2.2,0,0,0,2.2-2.2V124.26a5.9,5.9,0,1,1,11.8,0V227.5A14,14,0,0,1,233.34,241.51Z"/><path class="cls-1" d="M160.46,28.49a14.24,14.24,0,0,1,9.8,3.88l107,80.74a5.9,5.9,0,1,1-7.11,9.42L162.54,41.33l-.29-.29a2.53,2.53,0,0,0-3.58,0l-.29.29L50.72,122.53a5.9,5.9,0,0,1-7.11-9.42l107-80.74a14.26,14.26,0,0,1,9.81-3.88"/><path class="cls-1" d="M125.69,191.56V120.15c0-3.94,1.91-6,5.48-6h1.91c3.82,0,5.73,2,5.73,6v29.92h43.4V120.15c0-3.94,1.91-6,5.48-6h1.9c3.82,0,5.73,2,5.73,6v71.41c0,3.95-1.91,6-5.73,6h-1.9c-3.57,0-5.48-2-5.48-6v-30h-43.4v30c0,3.95-1.91,6-5.73,6h-1.91C127.6,197.55,125.69,195.51,125.69,191.56Z"/><path class="cls-1" d="M326.88,203.32V128c0-4.16,2-6.31,5.77-6.31h2c4,0,6,2.15,6,6.31v31.54h45.77V128c0-4.16,2-6.31,5.77-6.31h2c4,0,6,2.15,6,6.31v75.29c0,4.16-2,6.31-6,6.31h-2c-3.76,0-5.77-2.15-5.77-6.31V171.65H340.7v31.67c0,4.16-2,6.31-6,6.31h-2C328.89,209.63,326.88,207.48,326.88,203.32Z"/><path class="cls-1" d="M412.58,192.18c0-14.89,14.22-21.34,43.35-21.87h1.74V169c0-9.79-5.63-15.16-16-15.16-9.8,0-15.57,5.1-18.52,11,0,.14-8.19,0-8.19-6.44,0-6.17,9.4-15.43,27.65-15.43s28.18,9.39,28.18,25.77v39.59c0,.67-2.41,1.47-4.83,1.47-4.69,0-8.05-2.55-8.18-10.33-5,7-13.43,11.14-23.22,11.14C420.76,210.57,412.58,203.19,412.58,192.18Zm45.09-8.59v-5l-3.62.13c-18.79.67-28.45,4.16-28.45,12.89,0,5.77,4.56,9.39,12.21,9.39C449.35,201,457.67,193.79,457.67,183.59Z"/><path class="cls-1" d="M484.27,229.09V145.34c0-.4,2.15-1.47,4.84-1.47,3.89,0,8.18,2.14,8.32,11.27,5-7.65,12.34-12.21,22.68-12.21,17.31,0,30.2,13.28,30.2,33.82,0,20.26-12.75,34.09-30.6,34.09-10.74,0-18.52-5.64-22.15-12.08v30.33c0,4.83-2.55,6.31-5.9,6.31h-1.48C486.69,235.4,484.27,233.92,484.27,229.09Zm53.15-52.21c0-13.42-8.32-22.95-19.86-22.95-9.93,0-16.78,5.24-20.13,13.42v13.56c0,10.87,9.12,18.92,19.86,18.92C529.37,199.83,537.42,190.57,537.42,176.88Z"/><path class="cls-1" d="M560.83,229.09V145.34c0-.4,2.15-1.47,4.83-1.47,3.89,0,8.19,2.14,8.32,11.27,5-7.65,12.35-12.21,22.69-12.21,17.31,0,30.19,13.28,30.19,33.82,0,20.26-12.75,34.09-30.6,34.09-10.73,0-18.52-5.64-22.14-12.08v30.33c0,4.83-2.55,6.31-5.91,6.31h-1.47C563.25,235.4,560.83,233.92,560.83,229.09ZM614,176.88c0-13.42-8.32-22.95-19.86-22.95-9.94,0-16.78,5.24-20.14,13.42v13.56c0,10.87,9.13,18.92,19.87,18.92C605.93,199.83,614,190.57,614,176.88Z"/><path class="cls-1" d="M646.1,231.64l10.73-26.17c-3-.27-4.56-1.07-5.63-3.76l-23.09-54c-.27-.81,2.69-3.89,7-3.89,3.76,0,6.31,1.74,8.46,7.51L661,195.94l15.44-44.29c1.88-5.91,4.83-7.78,8.32-7.78s7.25,2.95,7,3.62l-30.47,80.39c-2.14,5.77-5.1,7.39-8.18,7.39C649.32,235.27,645.83,232.31,646.1,231.64Z"/><path class="cls-1" d="M699.85,203.32V129.51c0-4.7,2.28-7.79,6.57-7.79h2.29c4.16,0,5.77,1.75,8.32,5.24l43,60.93V128c0-4.16,1.74-6.31,5.77-6.31h1.61c3.76,0,5.63,2.15,5.63,6.31v73.82c0,4.83-2.41,7.78-6.44,7.78h-1.07c-4.16,0-5.24-1.21-7.38-4.16l-45.23-64v61.87c0,4.16-1.88,6.31-5.91,6.31h-1.47C701.59,209.63,699.85,207.48,699.85,203.32Z"/><path class="cls-1" d="M785.16,177.15c0-19.59,14-34.22,33-34.22,18.66,0,31,13.15,31,32.48v1.07c0,2.82-.94,3.89-4,3.89H797.5c.94,11.95,9.8,20,22,20,11.28,0,16.92-5,20.27-10.74.27-.27,7,.94,7,6.58s-9.93,14.63-27.51,14.63C798.85,210.84,785.16,197.28,785.16,177.15Zm12.48-5.77h38.65C835.62,160.24,828.78,153,818,153S799.25,160.64,797.64,171.38Z"/><path class="cls-1" d="M854.93,197c0-4.16,4.84-6.3,5.24-6,4.29,5.51,11.54,9.67,21.74,9.67,9.13,0,14.23-3.36,14.23-8.73,0-6.57-6-7.78-16.65-10.06-9.52-2-22.68-5-22.68-18.66,0-12.08,10.07-20.26,25.77-20.26,16.51,0,24.83,7,24.83,13,0,4.16-5.1,6.57-5.37,6.17A23.32,23.32,0,0,0,883.12,153c-9.13,0-14,3.49-14,8.86,0,5.91,5.64,7.25,16.11,9.53,9.93,2.15,23.75,5.1,23.75,19.06,0,12.35-10.2,20.26-26.84,20.26C864.19,210.7,854.93,203.19,854.93,197Z"/><path class="cls-1" d="M913.91,150.44v-.94c0-3.22,1.61-5,5.77-5h4.7v-9.93c0-4.57,2.28-6.31,5.9-6.31h1.34c3.49,0,5.77,1.34,5.77,6.31v9.93H952c4.16,0,5.64,1.61,5.64,4.83v.94c0,3.35-1.61,5.1-5.77,5.1H937.26V188c0,8,2.28,11.95,8.59,11.95A10.94,10.94,0,0,0,955,195.4c.4-.4,3.75,1.48,3.75,5.64,0,5-5.5,9.8-15,9.8-13.28,0-19.32-7.38-19.32-21.34V155.41h-4.7C915.52,155.41,913.91,153.66,913.91,150.44Z"/></svg>